# xmcd CD database file
#
# Track frame offsets:
#	150
#	15783
#	35661
#	44695
#	64491
#	82904
#	107586
#	139408
#	159906
#	183499
#	213191
#
# Disc length: 3025 seconds
#
# Revision: 0
# Processed by: cddbd v1.5.2PL0 Copyright (c) Steve Scherf et al.
# Submitted via: CDex 1.51
#
DISCID=8f0bcf0b
DTITLE=Aga Zaryan - Picking Up The Pieces
DYEAR=2006
DGENRE=Jazz
TTITLE0=Day Dream
TTITLE1=Throw It Away
TTITLE2=Picking Up The Pieces
TTITLE3=A Woman's Work
TTITLE4=Answer Me My Love
TTITLE5=The Man I Love
TTITLE6=Here's To Life
TTITLE7=It Might As Well Be Spring
TTITLE8=Sophisticated Lady
TTITLE9=Suzanne
TTITLE10=Tender As A Rose
EXTD=YEAR: 2006
EXTT0=
EXTT1=
EXTT2=
EXTT3=
EXTT4=
EXTT5=
EXTT6=
EXTT7=
EXTT8=
EXTT9=
EXTT10=
PLAYORDER=
